<?xml version="1.0" encoding="UTF-8" standalone="no"?>
<svg
   width="60"
   height="60"
   viewBox="0 0 60 60"
   fill="none"
   version="1.1"
   id="svg3414"
   sodipodi:docname="unannounced-game-dark.svg"
   inkscape:version="1.4.2 (f4327f4, 2025-05-13)"
   xmlns:inkscape="http://www.inkscape.org/namespaces/inkscape"
   xmlns:sodipodi="http://sodipodi.sourceforge.net/DTD/sodipodi-0.dtd"
   xmlns="http://www.w3.org/2000/svg"
   xmlns:svg="http://www.w3.org/2000/svg">
  <defs
     id="defs3418" />
  <sodipodi:namedview
     id="namedview3416"
     pagecolor="#505050"
     bordercolor="#eeeeee"
     borderopacity="1"
     inkscape:showpageshadow="0"
     inkscape:pageopacity="0"
     inkscape:pagecheckerboard="0"
     inkscape:deskcolor="#505050"
     showgrid="false"
     inkscape:zoom="4.7022472"
     inkscape:cx="29.985663"
     inkscape:cy="30.091995"
     inkscape:window-width="2560"
     inkscape:window-height="1369"
     inkscape:window-x="2992"
     inkscape:window-y="270"
     inkscape:window-maximized="1"
     inkscape:current-layer="svg3414" />
  <path
     fill-rule="evenodd"
     clip-rule="evenodd"
     d="m 25.465984,8.8031687 c 0.221134,-0.07902 0.439775,-0.152808 0.655845,-0.2215351 -1.804356,1.8567654 -3.209932,4.4331194 -3.442962,7.6183734 -0.358428,4.900705 2.0697,11.070336 9.721351,18.103441 0.144528,0.132873 0.344762,0.186971 0.536636,0.145091 0.191794,-0.04188 0.351193,-0.174592 0.427235,-0.355614 l 4.457314,-10.619147 c 0.128934,-0.306983 -0.01552,-0.660347 -0.322496,-0.7892 -0.307062,-0.128854 -0.660346,0.01552 -0.78928,0.322576 l -4.122439,9.821107 C 25.5909,26.186138 23.569268,20.555877 23.881476,16.288026 c 0.27933,-3.819154 2.435925,-6.6777323 4.827799,-8.3230901 3.722533,-0.5848669 6.401616,0.3308562 7.547153,1.0729508 0.09791,0.06343 0.222901,0.07427 0.329249,0.02628 9.104331,-4.1077278 17.000909,2.4515203 17.000909,15.6080343 0,31.484306 -15.032171,19.903537 -15.654093,16.516522 -0.02315,-0.12596 0.05618,-0.236165 0.173707,-0.287128 l 1.905959,-0.826658 c 0.146941,-0.06374 0.321693,-0.0025 0.4114,0.13014 4.079273,6.032176 13.026939,-3.750989 -0.292513,-8.854983 -0.146216,-0.05611 -0.31912,-0.0017 -0.395002,0.135365 -2.880281,5.203026 -3.603406,14.025294 -3.619965,19.077521 -0.003,0.908729 -0.73052,1.658059 -1.639249,1.658059 h -6.18209 c -0.836866,0 -1.533787,-0.642099 -1.602273,-1.476232 l -0.802382,-9.781312 c -0.01647,-0.201038 -0.211729,-0.337287 -0.408426,-0.292674 -2.078542,0.471124 -4.521219,0.223867 -5.808069,-0.01906 -0.19324,-0.03649 -0.378603,0.100962 -0.393153,0.297176 l -0.726099,9.783491 c -0.06229,0.839358 -0.761548,1.488611 -1.603237,1.488611 h -6.046485 c -0.811948,0 -1.4965694,-0.603435 -1.5887686,-1.410077 C 8.9350737,47.481425 8.3957043,42.033472 8.391042,38.978519 8.3909617,38.951349 8.387582,38.925389 8.380753,38.899099 4.6641682,24.503562 4.2264027,7.6799774 25.335925,8.8219777 c 0.04317,0.0024 0.0893,-0.0041 0.130059,-0.01881 z M 43.85366,22.809171 c 1.045058,0 1.892214,-0.805276 1.892214,-1.798568 0,-0.798845 -0.547809,-0.767978 -1.305821,-0.725214 -0.184639,0.01045 -0.381738,0.02154 -0.586393,0.02154 -0.204736,0 -0.401835,-0.01109 -0.586474,-0.02154 -0.758011,-0.04276 -1.305821,-0.07363 -1.305821,0.725214 0,0.993292 0.847156,1.798568 1.892295,1.798568 z"
     fill="#000000"
     id="path3412"
     style="stroke-width:0.80383;fill:#ffffff;fill-opacity:1"
     inkscape:label="path3412" />
</svg>
