<?xml version="1.0" encoding="UTF-8" standalone="no"?>
<svg
   viewBox="0 0 128 128"
   version="1.1"
   id="svg1"
   sodipodi:docname="vs.svg"
   xml:space="preserve"
   inkscape:version="1.4.2 (f4327f4, 2025-05-13)"
   xmlns:inkscape="http://www.inkscape.org/namespaces/inkscape"
   xmlns:sodipodi="http://sodipodi.sourceforge.net/DTD/sodipodi-0.dtd"
   xmlns="http://www.w3.org/2000/svg"
   xmlns:svg="http://www.w3.org/2000/svg"><defs
     id="defs1"><filter
       id="b"
       width="144.744"
       height="113.408"
       x="-8.41115"
       y="22.5944"
       color-interpolation-filters="sRGB"
       filterUnits="userSpaceOnUse"><feFlood
         flood-opacity="0"
         result="BackgroundImageFix"
         id="feFlood5" /><feColorMatrix
         in="SourceAlpha"
         result="hardAlpha"
         values="0 0 0 0 0 0 0 0 0 0 0 0 0 0 0 0 0 0 127 0"
         id="feColorMatrix5" /><feOffset
         id="feOffset5" /><feGaussianBlur
         stdDeviation="4.16667"
         id="feGaussianBlur5" /><feColorMatrix
         values="0 0 0 0 0 0 0 0 0 0 0 0 0 0 0 0 0 0 0.25 0"
         id="feColorMatrix6" /><feBlend
         in2="BackgroundImageFix"
         mode="overlay"
         result="effect1_dropShadow_1_36"
         id="feBlend6" /><feBlend
         in="SourceGraphic"
         in2="effect1_dropShadow_1_36"
         result="shape"
         id="feBlend7" /></filter><filter
       id="c"
       width="56.6667"
       height="144.007"
       x="79.6667"
       y="-8.0035"
       color-interpolation-filters="sRGB"
       filterUnits="userSpaceOnUse"><feFlood
         flood-opacity="0"
         result="BackgroundImageFix"
         id="feFlood7" /><feColorMatrix
         in="SourceAlpha"
         result="hardAlpha"
         values="0 0 0 0 0 0 0 0 0 0 0 0 0 0 0 0 0 0 127 0"
         id="feColorMatrix7" /><feOffset
         id="feOffset7" /><feGaussianBlur
         stdDeviation="4.16667"
         id="feGaussianBlur7" /><feColorMatrix
         values="0 0 0 0 0 0 0 0 0 0 0 0 0 0 0 0 0 0 0.25 0"
         id="feColorMatrix8" /><feBlend
         in2="BackgroundImageFix"
         mode="overlay"
         result="effect1_dropShadow_1_36"
         id="feBlend8" /><feBlend
         in="SourceGraphic"
         in2="effect1_dropShadow_1_36"
         result="shape"
         id="feBlend9" /></filter><linearGradient
       id="d"
       x1="63.9222"
       x2="63.9222"
       y1="0.329902"
       y2="127.67"
       gradientUnits="userSpaceOnUse"><stop
         stop-color="#fff"
         id="stop9" /><stop
         offset="1"
         stop-color="#fff"
         stop-opacity="0"
         id="stop10" /></linearGradient></defs><sodipodi:namedview
     id="namedview1"
     pagecolor="#ffffff"
     bordercolor="#000000"
     borderopacity="0.25"
     inkscape:showpageshadow="2"
     inkscape:pageopacity="0.0"
     inkscape:pagecheckerboard="0"
     inkscape:deskcolor="#d1d1d1"
     inkscape:zoom="6.0390625"
     inkscape:cx="57.128072"
     inkscape:cy="65.324709"
     inkscape:window-width="1920"
     inkscape:window-height="991"
     inkscape:window-x="-9"
     inkscape:window-y="-9"
     inkscape:window-maximized="1"
     inkscape:current-layer="svg1" /><g
     mask="url(#a)"
     id="g5"
     transform="matrix(0.57484876,0,0,0.57484876,3.1254193,0.69398614)"><path
       fill="#0065a9"
       d="M 123.471,13.82 97.097,1.12 A 7.973,7.973 0 0 0 88,2.668 L 1.662,81.387 a 5.333,5.333 0 0 0 0.006,7.887 l 7.052,6.411 a 5.333,5.333 0 0 0 6.811,0.303 L 119.502,17.113 C 122.99,14.467 128,16.955 128,21.333 v -0.306 a 8.001,8.001 0 0 0 -4.529,-7.208 z"
       id="path2" /><g
       filter="url(#b)"
       id="g3"><path
         fill="#007acc"
         d="M 123.471,114.181 97.097,126.879 A 7.973,7.973 0 0 1 88,125.333 L 1.662,46.613 A 5.333,5.333 0 0 1 1.668,38.726 L 8.72,32.315 a 5.333,5.333 0 0 1 6.811,-0.303 l 103.971,78.874 c 3.488,2.647 8.498,0.159 8.498,-4.219 v 0.306 a 8.001,8.001 0 0 1 -4.529,7.208 z"
         id="path3" /></g><g
       filter="url(#c)"
       id="g4"><path
         fill="#1f9cf0"
         d="M 97.098,126.882 A 7.977,7.977 0 0 1 88,125.333 c 2.952,2.952 8,0.861 8,-3.314 V 5.98 C 96,1.805 90.952,-0.286 88,2.667 A 7.977,7.977 0 0 1 97.098,1.118 L 123.467,13.8 A 8,8 0 0 1 128,21.01 v 85.982 a 8,8 0 0 1 -4.533,7.21 l -26.369,12.681 z"
         id="path4" /></g><path
       fill="url(#d)"
       fill-rule="evenodd"
       d="m 90.69,127.126 a 7.968,7.968 0 0 0 6.349,-0.244 l 26.353,-12.681 a 8,8 0 0 0 4.53,-7.21 V 21.009 a 8,8 0 0 0 -4.53,-7.21 L 97.039,1.12 A 7.97,7.97 0 0 0 87.946,2.668 L 37.496,48.694 15.522,32.014 A 5.328,5.328 0 0 0 8.715,32.316 L 1.667,38.727 A 5.336,5.336 0 0 0 1.661,46.615 L 20.718,64 1.662,81.386 a 5.335,5.335 0 0 0 0.006,7.888 l 7.048,6.411 a 5.328,5.328 0 0 0 6.807,0.303 l 21.975,-16.681 50.45,46.026 a 7.959,7.959 0 0 0 2.742,1.793 z M 95.942,34.942 57.662,64 95.942,93.057 V 34.943 Z"
       clip-rule="evenodd"
       opacity="0.25"
       style="mix-blend-mode:overlay;fill:url(#d)"
       id="path5" /></g><path
     fill="#68217a"
     d="m 103.62927,42.862749 20.71993,8.355905 V 118.2697 L 103.4934,126.69353 70.205655,93.609584 49.146057,109.98172 40.790154,105.76981 V 63.786478 l 8.355903,-4.008117 21.059598,16.508007 z M 49.146057,72.346184 V 97.821505 L 61.713882,84.914008 Z M 81.822402,84.914008 103.4934,101.96549 V 67.794594 Z"
     id="path1"
     style="stroke-width:0.679342" /></svg>
